<svg width="80" height="80" viewBox="0 0 80 80" fill="none" xmlns="http://www.w3.org/2000/svg">
<circle cx="40" cy="40" r="39" fill="#F8F8F8" stroke="#666666" stroke-width="2"/>
<mask id="path-2-inside-1_203_9082" fill="white">
<path fill-rule="evenodd" clip-rule="evenodd" d="M10.2086 66.6929C11.96 51.9242 24.5248 40.4707 39.7647 40.4707C55.1627 40.4707 67.8298 52.1631 69.3718 67.1536C62.0647 75.0538 51.61 80.0001 40 80.0001C28.1659 80.0001 17.5321 74.8611 10.2086 66.6929Z"/>
</mask>
<path fill-rule="evenodd" clip-rule="evenodd" d="M10.2086 66.6929C11.96 51.9242 24.5248 40.4707 39.7647 40.4707C55.1627 40.4707 67.8298 52.1631 69.3718 67.1536C62.0647 75.0538 51.61 80.0001 40 80.0001C28.1659 80.0001 17.5321 74.8611 10.2086 66.6929Z" fill="#F8F8F8"/>
<path d="M10.2085 66.6929L8.22241 66.4573L8.11596 67.355L8.71939 68.028L10.2085 66.6929ZM69.3717 67.1536L70.8399 68.5116L71.4537 67.8481L71.3612 66.949L69.3717 67.1536ZM12.1946 66.9284C13.8281 53.1542 25.5502 42.4707 39.7646 42.4707V38.4707C23.4992 38.4707 10.0918 50.6942 8.22241 66.4573L12.1946 66.9284ZM39.7646 42.4707C54.1267 42.4707 65.944 53.3771 67.3822 67.3583L71.3612 66.949C69.7153 50.949 56.1985 38.4707 39.7646 38.4707V42.4707ZM67.9034 65.7956C60.959 73.3037 51.0294 78.0001 39.9999 78.0001V82.0001C52.1903 82.0001 63.1702 76.804 70.8399 68.5116L67.9034 65.7956ZM39.9999 78.0001C28.7577 78.0001 18.6578 73.1207 11.6976 65.3577L8.71939 68.028C16.4062 76.6014 27.5739 82.0001 39.9999 82.0001V78.0001Z" fill="#666666" mask="url(#path-2-inside-1_203_9082)"/>
<circle cx="39.7648" cy="27.5294" r="14.5294" fill="#F8F8F8" stroke="#666666" stroke-width="2"/>
</svg>
