<svg width="16" height="16" viewBox="0 0 24 24" fill="none" xmlns="http://www.w3.org/2000/svg">
<path d="M9.1415 18.5881L9.35537 17.8692C9.16201 17.8117 8.95362 17.8345 8.77726 17.9324L9.1415 18.5881ZM4.8 21L4.05612 20.9044C4.02004 21.185 4.14495 21.462 4.37913 21.6208C4.61331 21.7795 4.91691 21.793 5.16423 21.6556L4.8 21ZM5.38791 16.4274L6.13178 16.523C6.16206 16.2875 6.07902 16.0516 5.9079 15.8869L5.38791 16.4274ZM12 19.75C17.2993 19.75 21.75 15.9131 21.75 11H20.25C20.25 14.9235 16.6418 18.25 12 18.25V19.75ZM8.92762 19.3069C9.89498 19.5947 10.9282 19.75 12 19.75V18.25C11.0733 18.25 10.1842 18.1158 9.35537 17.8692L8.92762 19.3069ZM5.16423 21.6556L9.50573 19.2437L8.77726 17.9324L4.43577 20.3444L5.16423 21.6556ZM4.64403 16.3318L4.05612 20.9044L5.54388 21.0956L6.13178 16.523L4.64403 16.3318ZM2.25 11C2.25 13.3195 3.25452 15.4156 4.86791 16.9679L5.9079 15.8869C4.5568 14.587 3.75 12.8698 3.75 11H2.25ZM12 2.25C6.70071 2.25 2.25 6.0869 2.25 11H3.75C3.75 7.07654 7.35816 3.75 12 3.75V2.25ZM21.75 11C21.75 6.0869 17.2993 2.25 12 2.25V3.75C16.6418 3.75 20.25 7.07654 20.25 11H21.75Z" fill="black"/>
</svg>
