<svg width="14" height="14" viewBox="0 0 24 24" fill="content" xmlns="http://www.w3.org/2000/svg">
<path d="M19.0555 3.4172C19.7229 3.69376 20.3294 4.09912 20.8401 4.61012C21.3511 5.12087 21.7565 5.7273 22.033 6.39476C22.3096 7.06222 22.4519 7.77763 22.4519 8.50012C22.4519 9.2226 22.3096 9.93801 22.033 10.6055C21.7565 11.2729 21.3511 11.8794 20.8401 12.3901L19.7801 13.4501L12.0001 21.2301L4.22012 13.4501L3.16012 12.3901C2.12843 11.3584 1.54883 9.95915 1.54883 8.50012C1.54883 7.04108 2.12843 5.64181 3.16012 4.61012C4.19181 3.57842 5.59109 2.99883 7.05012 2.99883C8.50915 2.99883 9.90843 3.57842 10.9401 4.61012L12.0001 5.67012L13.0601 4.61012C13.5709 4.09912 14.1773 3.69376 14.8448 3.4172C15.5122 3.14064 16.2276 2.99829 16.9501 2.99829C17.6726 2.99829 18.388 3.14064 19.0555 3.4172Z" stroke="content" stroke-width="2" stroke-linecap="round" stroke-linejoin="round"/>
</svg>
