<svg width="95" height="35" viewBox="0 0 95 35" fill="none" xmlns="http://www.w3.org/2000/svg">
<path d="M7.69434 16.3398L5.67285 28H0.853516L3.60742 12.1504H8.08984L7.69434 16.3398ZM12.8799 12.0186L12.25 16.6182C11.9961 16.5791 11.7422 16.5449 11.4883 16.5156C11.2344 16.4863 10.9756 16.4668 10.7119 16.457C10.1748 16.4473 9.68652 16.5107 9.24707 16.6475C8.81738 16.7744 8.44141 16.9746 8.11914 17.248C7.80664 17.5117 7.54785 17.8438 7.34277 18.2441C7.1377 18.6445 6.98633 19.1084 6.88867 19.6357L6.08301 19.0498C6.18066 18.3076 6.33691 17.5215 6.55176 16.6914C6.77637 15.8516 7.08887 15.0605 7.48926 14.3184C7.88965 13.5762 8.40723 12.9756 9.04199 12.5166C9.67676 12.0479 10.458 11.8135 11.3857 11.8135C11.6396 11.8135 11.8887 11.833 12.1328 11.8721C12.377 11.9111 12.626 11.96 12.8799 12.0186ZM19.4131 28.293C18.3193 28.2734 17.3232 28.0732 16.4248 27.6924C15.5264 27.3018 14.7646 26.7646 14.1396 26.0811C13.5146 25.3975 13.0508 24.5967 12.748 23.6787C12.4551 22.751 12.3477 21.7402 12.4258 20.6465L12.4844 20.0752C12.6016 18.9229 12.875 17.8486 13.3047 16.8525C13.7344 15.8467 14.3105 14.9678 15.0332 14.2158C15.7559 13.4541 16.6055 12.8633 17.582 12.4434C18.5684 12.0234 19.6719 11.8281 20.8926 11.8574C21.9961 11.877 22.9482 12.0967 23.749 12.5166C24.5596 12.9365 25.2188 13.5078 25.7266 14.2305C26.2344 14.9434 26.5859 15.7637 26.7812 16.6914C26.9863 17.6094 27.0352 18.5859 26.9277 19.6211L26.6494 21.6279H14.0518L14.5498 18.5371L22.3135 18.5518L22.4014 18.127C22.4697 17.668 22.4502 17.2529 22.3428 16.8818C22.2354 16.5107 22.0352 16.2178 21.7422 16.0029C21.4492 15.7783 21.0537 15.6562 20.5557 15.6367C19.9502 15.627 19.4473 15.7588 19.0469 16.0322C18.6562 16.3057 18.3389 16.667 18.0947 17.1162C17.8604 17.5654 17.6797 18.0537 17.5527 18.5811C17.4258 19.0986 17.333 19.5967 17.2744 20.0752L17.2158 20.6318C17.1768 21.1104 17.1914 21.5742 17.2598 22.0234C17.3281 22.4727 17.4648 22.8779 17.6699 23.2393C17.8848 23.6006 18.1729 23.8936 18.5342 24.1182C18.8955 24.333 19.3496 24.4502 19.8965 24.4697C20.6289 24.4893 21.3125 24.3525 21.9473 24.0596C22.582 23.7666 23.1533 23.3662 23.6611 22.8584L25.668 25.5244C25.2285 26.1885 24.6621 26.7256 23.9688 27.1357C23.2754 27.5361 22.5283 27.8291 21.7275 28.0146C20.9365 28.21 20.165 28.3027 19.4131 28.293ZM40.5801 20.793L45.4873 20.7344C45.3506 22.3555 44.8281 23.7373 43.9199 24.8799C43.0215 26.0127 41.8838 26.8721 40.5068 27.458C39.1396 28.0439 37.6797 28.3223 36.127 28.293C34.6523 28.2637 33.4121 27.9609 32.4062 27.3848C31.4004 26.7988 30.6094 26.0176 30.0332 25.041C29.457 24.0547 29.0762 22.9512 28.8906 21.7305C28.7051 20.5 28.6953 19.2305 28.8613 17.9219L29.0225 16.7646C29.2178 15.4072 29.5791 14.1035 30.1064 12.8535C30.6338 11.5938 31.3223 10.4707 32.1719 9.48438C33.0312 8.49805 34.0518 7.72656 35.2334 7.16992C36.415 6.60352 37.7529 6.33496 39.2471 6.36426C40.8389 6.39355 42.1914 6.72559 43.3047 7.36035C44.4277 7.99512 45.2969 8.88379 45.9121 10.0264C46.5371 11.1689 46.8887 12.5166 46.9668 14.0693L41.9717 14.0547C42.001 13.3027 41.9277 12.6582 41.752 12.1211C41.5762 11.584 41.2637 11.1689 40.8145 10.876C40.375 10.5732 39.7549 10.4072 38.9541 10.3779C38.085 10.3486 37.3574 10.5293 36.7715 10.9199C36.1953 11.3008 35.7266 11.8135 35.3652 12.458C35.0039 13.1025 34.7256 13.8008 34.5303 14.5527C34.3447 15.3047 34.2031 16.0322 34.1055 16.7354L33.959 17.9365C33.8906 18.5127 33.8271 19.1621 33.7686 19.8848C33.71 20.5977 33.7344 21.2861 33.8418 21.9502C33.9492 22.6045 34.1982 23.1514 34.5889 23.5908C34.9795 24.0303 35.5898 24.2646 36.4199 24.2939C37.2012 24.3135 37.8799 24.1914 38.4561 23.9277C39.0322 23.6543 39.4961 23.2539 39.8477 22.7266C40.209 22.1895 40.4531 21.5449 40.5801 20.793ZM66.2002 16.8232L66.0977 17.6875C65.9023 19.084 65.5264 20.4268 64.9697 21.7158C64.4229 22.9951 63.7002 24.1328 62.8018 25.1289C61.9131 26.125 60.8584 26.9111 59.6377 27.4873C58.417 28.0537 57.0449 28.3223 55.5215 28.293C54.0566 28.2637 52.8066 27.9512 51.7715 27.3555C50.7461 26.7598 49.9258 25.9639 49.3105 24.9678C48.7051 23.9717 48.2949 22.8535 48.0801 21.6133C47.8652 20.373 47.8359 19.0938 47.9922 17.7754L48.0947 16.9111C48.29 15.5244 48.666 14.1963 49.2227 12.9268C49.7793 11.6475 50.5068 10.5098 51.4053 9.51367C52.3037 8.51758 53.3633 7.74121 54.584 7.18457C55.8047 6.61816 57.1719 6.34961 58.6855 6.37891C60.1406 6.39844 61.3809 6.70605 62.4062 7.30176C63.4316 7.89746 64.2471 8.69336 64.8525 9.68945C65.4678 10.6758 65.8828 11.7891 66.0977 13.0293C66.3223 14.2598 66.3564 15.5244 66.2002 16.8232ZM61 17.7754L61.1172 16.8672C61.1855 16.291 61.2295 15.6416 61.249 14.9189C61.2686 14.1963 61.2051 13.498 61.0586 12.8242C60.9121 12.1406 60.6289 11.5742 60.209 11.125C59.7988 10.6758 59.1934 10.4316 58.3926 10.3926C57.5039 10.3535 56.752 10.5342 56.1367 10.9346C55.5215 11.3252 55.0137 11.8525 54.6133 12.5166C54.2227 13.1709 53.915 13.8838 53.6904 14.6553C53.4658 15.4268 53.3047 16.1689 53.207 16.8818L53.0898 17.79C53.0215 18.3662 52.9727 19.0205 52.9434 19.7529C52.9238 20.4756 52.9824 21.1787 53.1191 21.8623C53.2656 22.5459 53.5488 23.1172 53.9688 23.5762C54.3887 24.0254 55.0039 24.2646 55.8145 24.2939C56.6836 24.333 57.4258 24.1523 58.041 23.752C58.6562 23.3418 59.1641 22.8047 59.5645 22.1406C59.9746 21.4766 60.292 20.7588 60.5166 19.9873C60.751 19.2158 60.9121 18.4785 61 17.7754ZM73.5244 16.3398L71.5029 28H66.6836L69.4375 12.1504H73.9199L73.5244 16.3398ZM78.71 12.0186L78.0801 16.6182C77.8262 16.5791 77.5723 16.5449 77.3184 16.5156C77.0645 16.4863 76.8057 16.4668 76.542 16.457C76.0049 16.4473 75.5166 16.5107 75.0771 16.6475C74.6475 16.7744 74.2715 16.9746 73.9492 17.248C73.6367 17.5117 73.3779 17.8438 73.1729 18.2441C72.9678 18.6445 72.8164 19.1084 72.7188 19.6357L71.9131 19.0498C72.0107 18.3076 72.167 17.5215 72.3818 16.6914C72.6064 15.8516 72.9189 15.0605 73.3193 14.3184C73.7197 13.5762 74.2373 12.9756 74.8721 12.5166C75.5068 12.0479 76.2881 11.8135 77.2158 11.8135C77.4697 11.8135 77.7188 11.833 77.9629 11.8721C78.207 11.9111 78.4561 11.96 78.71 12.0186ZM86.9131 24.0889L90.1357 5.5H94.9844L91.0879 28H86.7666L86.9131 24.0889ZM78.1533 20.3828L78.1826 20.0605C78.2998 19.0938 78.5195 18.1172 78.8418 17.1309C79.1641 16.1445 79.6035 15.2461 80.1602 14.4355C80.7266 13.625 81.4248 12.9805 82.2549 12.502C83.0947 12.0234 84.0908 11.8037 85.2432 11.8428C86.2197 11.8818 87.0205 12.1748 87.6455 12.7217C88.2705 13.2686 88.7539 13.9619 89.0957 14.8018C89.4375 15.6318 89.6719 16.5059 89.7988 17.4238C89.9258 18.3418 89.9795 19.1865 89.96 19.958L89.916 20.3535C89.7695 21.1836 89.5156 22.0674 89.1543 23.0049C88.8027 23.9326 88.3389 24.8066 87.7627 25.627C87.1963 26.4375 86.5225 27.0967 85.7412 27.6045C84.96 28.1025 84.0762 28.3369 83.0898 28.3076C82.0156 28.2783 81.1367 28.0195 80.4531 27.5312C79.7695 27.043 79.2422 26.4082 78.8711 25.627C78.5098 24.8457 78.2754 23.9961 78.168 23.0781C78.0703 22.1602 78.0654 21.2617 78.1533 20.3828ZM83.0166 20.0459L82.9873 20.3535C82.958 20.7051 82.9336 21.1104 82.9141 21.5693C82.8945 22.0283 82.9189 22.4775 82.9873 22.917C83.0654 23.3564 83.2266 23.7275 83.4707 24.0303C83.7246 24.3232 84.1006 24.4844 84.5986 24.5137C85.3213 24.543 85.9121 24.3721 86.3711 24.001C86.8398 23.6299 87.1963 23.1562 87.4404 22.5801C87.6943 21.9941 87.8555 21.3936 87.9238 20.7783L88.0557 19.6064C88.1045 19.2061 88.1289 18.7812 88.1289 18.332C88.1387 17.8828 88.0898 17.458 87.9824 17.0576C87.875 16.6572 87.6797 16.3252 87.3965 16.0615C87.1133 15.7979 86.7031 15.6611 86.166 15.6514C85.5996 15.6318 85.1211 15.7637 84.7305 16.0469C84.3496 16.3301 84.042 16.7012 83.8076 17.1602C83.583 17.6094 83.4072 18.0928 83.2803 18.6104C83.1631 19.1182 83.0752 19.5967 83.0166 20.0459Z" fill="black"/>
<path d="M53 27L53.5 31H49L50 29.5H53" stroke="black"/>
<path d="M58.5 27L58 31H62.5L61.5 29.5H58.5" stroke="black"/>
</svg>
