<svg width="24" height="24" viewBox="0 0 24 24" fill="none" xmlns="http://www.w3.org/2000/svg">
<path d="M19.9496 15.2892L20.6569 15.6355L19.9496 15.2892ZM17.651 15.5372C18.278 15.5372 18.8912 15.4742 19.4843 15.3541L19.1715 13.8104C18.6808 13.9098 18.1724 13.9621 17.651 13.9621V15.5372ZM8.46282 6.34902C8.46282 11.4235 12.5765 15.5372 17.651 15.5372V13.9621C13.4464 13.9621 10.0379 10.5536 10.0379 6.34902H8.46282ZM8.64589 4.51574C8.52575 5.10879 8.46282 5.72196 8.46282 6.34902H10.0379C10.0379 5.82758 10.0902 5.31916 10.1896 4.82848L8.64589 4.51574ZM8.36445 3.34309C5.315 4.8364 3.21244 7.97161 3.21244 11.5994H4.78756C4.78756 8.59565 6.52704 5.9967 9.05718 4.7577L8.36445 3.34309ZM3.21244 11.5994C3.21244 16.6739 7.32612 20.7876 12.4006 20.7876V19.2124C8.19603 19.2124 4.78756 15.804 4.78756 11.5994H3.21244ZM12.4006 20.7876C16.0284 20.7876 19.1636 18.685 20.6569 15.6355L19.2423 14.9428C18.0033 17.473 15.4044 19.2124 12.4006 19.2124V20.7876ZM10.1896 4.82848C10.2905 4.33065 10.1074 3.85033 9.77309 3.54654C9.42607 3.23115 8.88532 3.08802 8.36445 3.34309L9.05718 4.7577C9.00702 4.78226 8.93695 4.79544 8.86294 4.78251C8.79407 4.77048 8.74447 4.74012 8.71371 4.71217C8.65676 4.6604 8.63151 4.58671 8.64589 4.51574L10.1896 4.82848ZM19.4843 15.3541C19.4133 15.3685 19.3396 15.3432 19.2878 15.2863C19.2599 15.2555 19.2295 15.2059 19.2175 15.1371C19.2046 15.0631 19.2177 14.993 19.2423 14.9428L20.6569 15.6355C20.912 15.1147 20.7689 14.5739 20.4535 14.2269C20.1497 13.8926 19.6694 13.7095 19.1715 13.8104L19.4843 15.3541Z" fill="black"/>
</svg>
